<?xml version="1.0" standalone="no"?>
<!DOCTYPE svg PUBLIC "-//W3C//DTD SVG 20010904//EN"
 "http://www.w3.org/TR/2001/REC-SVG-20010904/DTD/svg10.dtd">
<svg version="1.0" xmlns="http://www.w3.org/2000/svg"
 width="300.000000pt" height="80.000000pt" viewBox="0 0 300.000000 80.000000"
 preserveAspectRatio="xMidYMid meet">
<metadata>
Created by potrace 1.10, written by Peter Selinger 2001-2011
</metadata>
<g transform="translate(0.000000,80.000000) scale(0.100000,-0.100000)"
fill="#000000" stroke="none">
<path d="M2055 741 c-22 -10 -49 -28 -59 -40 -19 -21 -19 -22 0 -36 17 -12 21
-12 34 4 34 42 89 52 128 25 22 -15 29 -57 14 -81 -10 -15 -57 -33 -88 -33
-17 0 -24 -5 -24 -20 0 -17 7 -20 41 -20 52 0 104 -46 94 -82 -18 -62 -108
-79 -164 -32 -21 17 -37 23 -51 19 -27 -8 -25 -16 8 -47 40 -38 65 -48 119
-48 79 0 143 55 143 124 0 28 -44 86 -66 86 -8 0 -14 5 -14 10 0 6 6 10 14 10
8 0 24 12 36 27 37 47 11 111 -57 139 -42 18 -60 17 -108 -5z"/>
<path d="M2401 744 c-69 -36 -107 -143 -91 -262 11 -86 57 -132 135 -132 98 0
163 97 120 180 -37 72 -112 90 -180 44 l-37 -25 7 38 c19 101 90 152 152 108
18 -13 22 -12 38 5 16 18 15 19 -9 35 -38 25 -95 29 -135 9z m108 -220 c53
-67 -13 -151 -96 -123 -89 29 -59 149 38 149 29 0 42 -6 58 -26z"/>
<path d="M2710 738 c-56 -29 -81 -72 -87 -151 -7 -83 10 -140 56 -189 87 -94
222 -42 251 96 24 117 -29 230 -121 256 -46 13 -48 13 -99 -12z m118 -51 c46
-36 64 -177 29 -230 -43 -65 -108 -71 -151 -14 -31 42 -35 169 -6 215 30 49
87 62 128 29z"/>
<path d="M1285 735 c-5 -2 -22 -6 -36 -9 -14 -3 -38 -18 -52 -32 -36 -35 -38
-101 -4 -131 26 -24 71 -48 109 -57 56 -13 70 -58 24 -76 -31 -11 -71 -2 -99
24 l-24 22 -28 -23 c-32 -28 -28 -45 17 -73 72 -44 176 -34 222 21 28 33 34
85 16 120 -12 21 -63 50 -125 69 -48 15 -70 37 -54 57 17 20 67 16 101 -9 l31
-22 23 30 c13 16 24 32 24 36 0 19 -117 61 -145 53z"/>
<path d="M90 546 l0 -186 41 0 41 0 -7 55 -6 55 63 0 c124 0 188 41 188 121 0
99 -48 131 -207 137 l-113 5 0 -187z m231 85 c24 -30 24 -46 -1 -71 -16 -16
-33 -20 -88 -20 l-68 0 2 58 c1 31 3 59 3 61 1 2 31 1 67 -1 55 -3 70 -8 85
-27z m-161 -123 c0 -5 -6 -16 -14 -24 -17 -17 -25 -2 -18 33 4 19 7 21 18 12
8 -6 14 -16 14 -21z"/>
<path d="M460 603 c0 -105 4 -136 20 -171 49 -108 231 -108 280 0 16 35 20 66
20 171 l0 127 -40 0 -40 0 0 -124 c0 -68 -3 -132 -6 -141 -10 -24 -60 -46 -89
-39 -14 3 -34 18 -45 31 -18 23 -20 41 -20 149 l0 124 -40 0 -40 0 0 -127z"/>
<path d="M840 545 l0 -185 145 0 145 0 0 35 0 35 -105 0 -105 0 0 150 0 150
-40 0 -40 0 0 -185z"/>
<path d="M1490 545 l0 -185 153 0 153 0 0 35 0 35 -113 0 -113 0 0 43 0 42
110 -3 110 -3 0 39 0 38 -110 -4 -110 -5 0 40 0 40 110 -1 110 -1 0 37 0 38
-150 0 -150 0 0 -185z m70 8 c0 -8 -7 -21 -15 -29 -13 -14 -15 -11 -15 20 0
27 3 34 15 30 8 -4 15 -13 15 -21z"/>
<path d="M740 140 c0 -56 3 -70 15 -70 10 0 15 10 15 30 0 27 3 30 30 30 27 0
30 -3 30 -31 0 -18 5 -29 11 -27 7 2 11 30 11 68 0 38 -4 66 -11 68 -6 2 -11
-9 -11 -27 0 -28 -3 -31 -30 -31 -27 0 -30 3 -30 30 0 20 -5 30 -15 30 -12 0
-15 -14 -15 -70z"/>
<path d="M910 139 l0 -70 52 3 c32 2 53 8 56 16 3 10 -7 13 -39 11 -35 -3 -44
0 -47 14 -3 14 4 17 37 17 51 0 54 18 4 22 -26 2 -38 8 -38 18 0 11 10 15 38
14 25 -1 37 3 37 12 0 10 -14 14 -50 14 l-50 0 0 -71z"/>
<path d="M1073 140 c-24 -53 -28 -70 -17 -70 8 0 17 7 20 15 8 20 64 19 79 -1
6 -9 17 -15 23 -13 14 5 -42 133 -60 137 -9 2 -26 -24 -45 -68z m67 -12 c0 -4
-9 -8 -20 -8 -21 0 -24 8 -13 36 6 16 7 16 20 -2 7 -10 13 -21 13 -26z"/>
<path d="M1224 194 c3 -9 6 -40 6 -70 l0 -55 48 3 c56 4 63 22 10 26 l-38 3 0
55 c0 43 -3 54 -16 54 -11 0 -14 -5 -10 -16z"/>
<path d="M1333 198 c2 -7 14 -12 26 -11 19 3 21 -2 21 -57 0 -47 3 -60 15 -60
12 0 15 12 13 58 -3 49 -1 57 15 54 10 -2 17 3 17 13 0 12 -12 15 -56 15 -40
0 -54 -3 -51 -12z"/>
<path d="M1480 140 c0 -56 3 -70 15 -70 10 0 15 10 15 30 0 27 3 30 31 30 27
0 30 -3 27 -27 -2 -15 2 -28 10 -30 9 -4 12 14 12 66 0 57 -3 71 -15 71 -11 0
-15 -8 -13 -27 3 -24 -1 -28 -24 -31 -25 -3 -28 0 -28 27 0 21 -5 31 -15 31
-12 0 -15 -14 -15 -70z"/>
<path d="M1662 194 c-19 -13 -22 -24 -20 -57 4 -51 39 -77 84 -62 44 16 42 35
-2 28 -29 -5 -40 -2 -50 12 -20 27 -17 42 10 60 20 14 28 14 45 3 25 -15 39
-4 21 17 -16 20 -60 19 -88 -1z"/>
<path d="M1826 145 c-27 -63 -28 -99 -2 -62 16 21 72 23 80 2 3 -8 12 -15 20
-15 12 0 9 14 -14 68 -15 37 -34 68 -42 70 -8 1 -25 -23 -42 -63z m64 -17 c0
-4 -9 -8 -20 -8 -21 0 -24 8 -13 36 6 16 7 16 20 -2 7 -10 13 -21 13 -26z"/>
<path d="M1980 140 c0 -40 4 -70 10 -70 6 0 10 11 10 25 0 18 5 25 18 25 10 0
25 -11 32 -25 7 -14 19 -25 27 -25 17 0 16 10 -2 34 -12 16 -12 21 0 40 23 34
-4 66 -56 66 l-39 0 0 -70z m77 34 c7 -18 -12 -34 -39 -34 -13 0 -18 8 -18 25
0 20 5 25 25 25 14 0 28 -7 32 -16z"/>
<path d="M2140 140 l0 -70 50 0 c38 0 50 4 50 15 0 11 -11 15 -40 15 -29 0
-40 4 -40 15 0 10 11 15 35 15 22 0 35 5 35 13 0 9 -11 12 -36 9 -31 -4 -35
-2 -32 14 3 15 12 19 41 17 27 -2 37 2 37 12 0 11 -13 15 -50 15 l-50 0 0 -70z"/>
</g>
</svg>
